<mxfile host="65bd71144e">
    <diagram id="NA8SMDckS1I9ZLGI_7sc" name="Page-1">
        <mxGraphModel dx="749" dy="387" grid="1" gridSize="10" guides="1" tooltips="1" connect="1" arrows="1" fold="1" page="1" pageScale="1" pageWidth="850" pageHeight="1100" math="0" shadow="0">
            <root>
                <mxCell id="0"/>
                <mxCell id="1" parent="0"/>
                <mxCell id="2" value="&amp;lt;&amp;lt;Boundary&amp;gt;&amp;gt;&lt;br&gt;&lt;b&gt;HomePageView&lt;/b&gt;" style="swimlane;fontStyle=0;align=center;verticalAlign=top;childLayout=stackLayout;horizontal=1;startSize=40;horizontalStack=0;resizeParent=1;resizeParentMax=0;resizeLast=0;collapsible=0;marginBottom=0;html=1;whiteSpace=wrap;fillColor=#dae8fc;strokeColor=#6c8ebf;swimlaneFillColor=none;gradientColor=none;fillStyle=auto;" vertex="1" parent="1">
                    <mxGeometry x="350" y="200" width="270" height="260" as="geometry"/>
                </mxCell>
                <mxCell id="3" value="-btnSettings: Button&lt;div&gt;-btnViewMap: Button&lt;/div&gt;&lt;div&gt;-btnGeneratePersonalizedRoute: Button&lt;/div&gt;&lt;div&gt;-btnSearchBar: Button&lt;/div&gt;&lt;div&gt;-btnHamburgerMenu: Button&lt;/div&gt;&lt;div&gt;-btnExhibitInfo: Button&lt;/div&gt;&lt;div&gt;-mapDisplay: Map&lt;/div&gt;" style="text;html=1;strokeColor=#6c8ebf;fillColor=#dae8fc;align=left;verticalAlign=middle;spacingLeft=4;spacingRight=4;overflow=hidden;rotatable=0;points=[[0,0.5],[1,0.5]];portConstraint=eastwest;whiteSpace=wrap;swimlaneFillColor=none;gradientColor=none;fillStyle=auto;" vertex="1" parent="2">
                    <mxGeometry y="40" width="270" height="110" as="geometry"/>
                </mxCell>
                <mxCell id="4" value="&lt;span style=&quot;color: rgb(0, 0, 0);&quot;&gt;+btnSettingsPress(): void&lt;/span&gt;&lt;div&gt;+btnViewMapPress(): void&lt;/div&gt;&lt;div&gt;+btnGeneratePersonalizedRoutePress(): void&lt;/div&gt;&lt;div&gt;+btnSearchBar&lt;span style=&quot;color: rgb(63, 63, 63); background-color: transparent;&quot;&gt;Press(): void&lt;/span&gt;&lt;/div&gt;&lt;div&gt;+btnHamburgerMenu&lt;span style=&quot;color: rgb(63, 63, 63); background-color: transparent;&quot;&gt;Press(): void&lt;/span&gt;&lt;/div&gt;&lt;div&gt;&lt;span style=&quot;color: rgb(63, 63, 63); background-color: transparent;&quot;&gt;+btnExhibitInfo(): void&lt;/span&gt;&lt;/div&gt;&lt;div&gt;&lt;span style=&quot;color: rgb(63, 63, 63); background-color: transparent;&quot;&gt;+mapDisplayMoving(): Array&amp;lt;float&amp;gt;&lt;/span&gt;&lt;/div&gt;" style="text;html=1;strokeColor=#6c8ebf;fillColor=#dae8fc;align=left;verticalAlign=middle;spacingLeft=4;spacingRight=4;overflow=hidden;rotatable=0;points=[[0,0.5],[1,0.5]];portConstraint=eastwest;whiteSpace=wrap;swimlaneFillColor=none;gradientColor=none;fillStyle=auto;" vertex="1" parent="2">
                    <mxGeometry y="150" width="270" height="110" as="geometry"/>
                </mxCell>
                <mxCell id="5" value="&amp;lt;&amp;lt;Controller&amp;gt;&amp;gt;&lt;br&gt;&lt;b&gt;HomePageControler&lt;/b&gt;" style="swimlane;fontStyle=0;align=center;verticalAlign=top;childLayout=stackLayout;horizontal=1;startSize=40;horizontalStack=0;resizeParent=1;resizeParentMax=0;resizeLast=0;collapsible=0;marginBottom=0;html=1;whiteSpace=wrap;fillColor=#dae8fc;strokeColor=#6c8ebf;swimlaneFillColor=none;gradientColor=none;fillStyle=auto;" vertex="1" parent="1">
                    <mxGeometry x="40" y="410" width="270" height="170" as="geometry"/>
                </mxCell>
                <mxCell id="6" value="" style="text;html=1;strokeColor=#6c8ebf;fillColor=#dae8fc;align=left;verticalAlign=middle;spacingLeft=4;spacingRight=4;overflow=hidden;rotatable=0;points=[[0,0.5],[1,0.5]];portConstraint=eastwest;whiteSpace=wrap;swimlaneFillColor=none;gradientColor=none;fillStyle=auto;" vertex="1" parent="5">
                    <mxGeometry y="40" width="270" height="10" as="geometry"/>
                </mxCell>
                <mxCell id="7" value="&lt;div&gt;+displayControl(): void&lt;/div&gt;+displayMenuPage(): void&lt;div&gt;+displaySettingsPage(): void&lt;/div&gt;&lt;div&gt;+displayMapPage(): void&lt;/div&gt;&lt;div&gt;+displayRouteMenu(): void&lt;/div&gt;&lt;div&gt;+displayExhibitInfo(): void&lt;/div&gt;&lt;div&gt;+handleSearch(query: String): void&lt;/div&gt;" style="text;html=1;strokeColor=#6c8ebf;fillColor=#dae8fc;align=left;verticalAlign=middle;spacingLeft=4;spacingRight=4;overflow=hidden;rotatable=0;points=[[0,0.5],[1,0.5]];portConstraint=eastwest;whiteSpace=wrap;swimlaneFillColor=none;gradientColor=none;fillStyle=auto;" vertex="1" parent="5">
                    <mxGeometry y="50" width="270" height="120" as="geometry"/>
                </mxCell>
            </root>
        </mxGraphModel>
    </diagram>
</mxfile>